<svg width="23" height="23" viewBox="0 0 23 23" fill="none" xmlns="http://www.w3.org/2000/svg">
<path d="M19.1667 23H3.83333C1.71605 23 0 21.284 0 19.1667V3.83333C0 1.71605 1.71605 0 3.83333 0H19.1667C21.284 0 23 1.71605 23 3.83333V19.1667C23 21.284 21.284 23 19.1667 23Z" fill="#EBEFFF"/>
<path d="M19.1667 0.638879C20.9275 0.638879 22.3611 2.07129 22.3611 3.83333V19.1667C22.3611 20.9287 20.9275 22.3611 19.1667 22.3611H3.83333C2.07255 22.3611 0.638879 20.9287 0.638879 19.1667V3.83333C0.638879 2.07129 2.07255 0.638879 3.83333 0.638879H19.1667ZM19.1667 0H3.83333C1.71605 0 0 1.71605 0 3.83333V19.1667C0 21.284 1.71605 23 3.83333 23H19.1667C21.284 23 23 21.284 23 19.1667V3.83333C23 1.71605 21.284 0 19.1667 0Z" fill="url(#paint0_linear_657_178)"/>
<path d="M19.1667 0H3.83333C1.71605 0 0 1.71605 0 3.83333V5.11112H23V3.83333C23 1.71605 21.284 0 19.1667 0Z" fill="#506CEB"/>
<path d="M15.3344 19.1667C15.3344 19.872 14.762 20.4445 14.0566 20.4445C13.3513 20.4445 12.7789 19.872 12.7789 19.1667C12.7789 18.4614 13.3513 17.8889 14.0566 17.8889C14.762 17.8889 15.3344 18.4614 15.3344 19.1667ZM8.94552 17.8889C8.24018 17.8889 7.66773 18.4614 7.66773 19.1667C7.66773 19.872 8.24018 20.4445 8.94552 20.4445C9.65085 20.4445 10.2233 19.872 10.2233 19.1667C10.2233 18.4614 9.65085 17.8889 8.94552 17.8889ZM3.8344 17.8889C3.12906 17.8889 2.55664 18.4614 2.55664 19.1667C2.55664 19.872 3.12906 20.4445 3.8344 20.4445C4.53973 20.4445 5.11219 19.872 5.11219 19.1667C5.11219 18.4614 4.53973 17.8889 3.8344 17.8889ZM3.8344 12.7778C3.12906 12.7778 2.55664 13.3502 2.55664 14.0556C2.55664 14.7609 3.12906 15.3334 3.8344 15.3334C4.53973 15.3334 5.11219 14.7609 5.11219 14.0556C5.11219 13.3502 4.53973 12.7778 3.8344 12.7778ZM8.94552 12.7778C8.24018 12.7778 7.66773 13.3502 7.66773 14.0556C7.66773 14.7609 8.24018 15.3334 8.94552 15.3334C9.65085 15.3334 10.2233 14.7609 10.2233 14.0556C10.2233 13.3502 9.65085 12.7778 8.94552 12.7778ZM14.0566 12.7778C13.3513 12.7778 12.7789 13.3502 12.7789 14.0556C12.7789 14.7609 13.3513 15.3334 14.0566 15.3334C14.762 15.3334 15.3344 14.7609 15.3344 14.0556C15.3344 13.3502 14.762 12.7778 14.0566 12.7778ZM19.1677 12.7778C18.4624 12.7778 17.89 13.3502 17.89 14.0556C17.89 14.7609 18.4624 15.3334 19.1677 15.3334C19.8731 15.3334 20.4455 14.7609 20.4455 14.0556C20.4455 13.3502 19.8731 12.7778 19.1677 12.7778ZM19.1677 10.2222C19.8731 10.2222 20.4455 9.64981 20.4455 8.94447C20.4455 8.23914 19.8731 7.66669 19.1677 7.66669C18.4624 7.66669 17.89 8.23914 17.89 8.94447C17.89 9.64981 18.4624 10.2222 19.1677 10.2222ZM14.0566 7.66669C13.3513 7.66669 12.7789 8.23914 12.7789 8.94447C12.7789 9.64981 13.3513 10.2222 14.0566 10.2222C14.762 10.2222 15.3344 9.64981 15.3344 8.94447C15.3344 8.23914 14.762 7.66669 14.0566 7.66669ZM8.94552 7.66669C8.24018 7.66669 7.66773 8.23914 7.66773 8.94447C7.66773 9.64981 8.24018 10.2222 8.94552 10.2222C9.65085 10.2222 10.2233 9.64981 10.2233 8.94447C10.2233 8.23914 9.65085 7.66669 8.94552 7.66669Z" fill="#506CEB"/>
<defs>
<linearGradient id="paint0_linear_657_178" x1="1.1228" y1="1.1228" x2="21.8772" y2="21.8772" gradientUnits="userSpaceOnUse">
<stop stop-color="white" stop-opacity="0.6"/>
<stop offset="0.4927" stop-color="white" stop-opacity="0"/>
<stop offset="0.9971" stop-color="white" stop-opacity="0.3"/>
</linearGradient>
</defs>
</svg>
