<svg width="20" height="16" viewBox="0 0 20 16" fill="none" xmlns="http://www.w3.org/2000/svg">
<path d="M19.8284 12.7035L18.7448 11.6199V5.58657C18.7448 5.36462 18.6194 5.16177 18.4209 5.06247L9.63441 0.669268C9.46945 0.586807 9.27531 0.586807 9.11035 0.669268L0.323906 5.06251C0.125391 5.16177 0 5.36466 0 5.58657C0 5.80849 0.125391 6.01138 0.323906 6.11067L3.76566 7.83153L3.76562 13.5873C3.76562 13.791 3.87145 13.9802 4.04512 14.0867C5.64426 15.0679 7.48648 15.5865 9.37262 15.5865C11.2587 15.5865 13.1009 15.0679 14.6997 14.0867C14.8733 13.9801 14.9791 13.791 14.9791 13.5873L14.9791 7.83153L17.5729 6.53466V11.6199L16.4893 12.7035C16.3794 12.8134 16.3177 12.9624 16.3177 13.1178V15.0006C16.3177 15.3242 16.58 15.5866 16.9036 15.5866H19.4141C19.7377 15.5866 20 15.3242 20 15.0006V13.1178C20 12.9624 19.9382 12.8134 19.8284 12.7035ZM13.8073 13.2525C12.4596 14.0137 10.9334 14.4146 9.37266 14.4146C7.81187 14.4146 6.28547 14.0136 4.9375 13.2524V11.6696C6.22555 12.5834 7.76102 13.0761 9.37242 13.0761C10.9838 13.0761 12.5193 12.5834 13.8073 11.6696V13.2525ZM4.9375 8.43032L9.10406 10.5767C9.27246 10.6634 9.47234 10.6634 9.6407 10.5767L13.8073 8.43032C13.8073 9.09485 13.8072 9.79989 13.8071 10.1618C12.5982 11.2873 11.0327 11.9043 9.37238 11.9043C7.71203 11.9043 6.14648 11.2873 4.93766 10.1618C4.93758 9.79989 4.93754 9.09485 4.9375 8.43032ZM9.37238 9.32474L1.89613 5.58657L9.37238 1.84845L16.8487 5.58657L9.37238 9.32474ZM18.8281 14.4147H17.4896V13.3605L18.1588 12.6913L18.8281 13.3606V14.4147Z" fill="#506CEB"/>
</svg>
