<svg width="20" height="21" viewBox="0 0 20 21" fill="none" xmlns="http://www.w3.org/2000/svg">
<path d="M3.27539 18.1837C3.59898 18.1837 3.86133 17.9213 3.86133 17.5978V16.9253C3.86133 16.6017 3.59898 16.3394 3.27539 16.3394C2.9518 16.3394 2.68945 16.6017 2.68945 16.9253V17.5978C2.68945 17.9213 2.9518 18.1837 3.27539 18.1837Z" fill="#506CEB"/>
<path d="M16.7246 18.1837C17.0482 18.1837 17.3105 17.9213 17.3105 17.5978V16.9253C17.3105 16.6017 17.0482 16.3394 16.7246 16.3394C16.401 16.3394 16.1387 16.6017 16.1387 16.9253V17.5978C16.1387 17.9213 16.401 18.1837 16.7246 18.1837Z" fill="#506CEB"/>
<path d="M19.4141 7.59768H14.1729L10.5859 5.80436V4.73502H14.0346C14.2716 4.73502 14.4852 4.59229 14.5759 4.37334C14.6666 4.15439 14.6165 3.90236 14.4489 3.73479L13.5184 2.80416L14.4489 1.87381C14.6164 1.70623 14.6666 1.4542 14.5759 1.23525C14.4852 1.01631 14.2716 0.873535 14.0346 0.873535H10C9.67641 0.873535 9.41406 1.13588 9.41406 1.45947V5.80436L5.82715 7.59768H0.585938C0.262344 7.59768 0 7.86002 0 8.18361V20.2876C0 20.6112 0.262344 20.8735 0.585938 20.8735H19.4141C19.7377 20.8735 20 20.6112 20 20.2876V8.18361C20 7.86002 19.7377 7.59768 19.4141 7.59768ZM10.5859 2.04541H12.6198L12.2754 2.38975C12.1655 2.49963 12.1038 2.64865 12.1038 2.80404C12.1038 2.95947 12.1655 3.1085 12.2754 3.21838L12.6201 3.56311H10.5859V2.04541ZM5.37949 19.7017H1.17188V11.4595H5.37949V19.7017ZM5.37949 10.2876H1.17188V8.76955H5.37949V10.2876ZM10.7589 19.7017H9.24109V17.5971C9.24109 17.1735 9.58531 16.8387 10.0005 16.8387C10.4115 16.8387 10.7589 17.171 10.7589 17.5971V19.7017ZM13.4486 19.7017H11.9308V17.5971C11.9308 16.5446 11.0808 15.6668 9.99949 15.6668C8.93375 15.6668 8.06922 16.5294 8.06922 17.5971V19.7017H6.55137V8.54576L10 6.82158L13.4486 8.54576V19.7017ZM18.8281 19.7017H14.6205V11.4595H18.8281V19.7017ZM18.8281 10.2876H14.6205V8.76955H18.8281V10.2876Z" fill="#506CEB"/>
<path d="M3.27539 14.8214C3.59898 14.8214 3.86133 14.559 3.86133 14.2354V13.563C3.86133 13.2394 3.59898 12.9771 3.27539 12.9771C2.9518 12.9771 2.68945 13.2394 2.68945 13.563V14.2354C2.68945 14.559 2.9518 14.8214 3.27539 14.8214Z" fill="#506CEB"/>
<path d="M16.7246 14.8214C17.0482 14.8214 17.3105 14.559 17.3105 14.2354V13.563C17.3105 13.2394 17.0482 12.9771 16.7246 12.9771C16.401 12.9771 16.1387 13.2394 16.1387 13.563V14.2354C16.1387 14.559 16.401 14.8214 16.7246 14.8214Z" fill="#506CEB"/>
<path d="M11.3457 14.8214C11.6693 14.8214 11.9316 14.559 11.9316 14.2354V13.563C11.9316 13.2394 11.6693 12.9771 11.3457 12.9771C11.0221 12.9771 10.7598 13.2394 10.7598 13.563V14.2354C10.7598 14.559 11.0221 14.8214 11.3457 14.8214Z" fill="#506CEB"/>
<path d="M11.3457 11.4596C11.6693 11.4596 11.9316 11.1972 11.9316 10.8736V10.2012C11.9316 9.87758 11.6693 9.61523 11.3457 9.61523C11.0221 9.61523 10.7598 9.87758 10.7598 10.2012V10.8736C10.7598 11.1972 11.0221 11.4596 11.3457 11.4596Z" fill="#506CEB"/>
<path d="M8.65625 12.9771C8.33266 12.9771 8.07031 13.2394 8.07031 13.563V14.2354C8.07031 14.559 8.33266 14.8214 8.65625 14.8214C8.97984 14.8214 9.24219 14.559 9.24219 14.2354V13.563C9.24219 13.2394 8.97984 12.9771 8.65625 12.9771Z" fill="#506CEB"/>
<path d="M8.65625 9.61523C8.33266 9.61523 8.07031 9.87758 8.07031 10.2012V10.8736C8.07031 11.1972 8.33266 11.4596 8.65625 11.4596C8.97984 11.4596 9.24219 11.1972 9.24219 10.8736V10.2012C9.24219 9.87754 8.97984 9.61523 8.65625 9.61523Z" fill="#506CEB"/>
</svg>
